<svg width="22" height="22" viewBox="0 0 22 22" fill="none" xmlns="http://www.w3.org/2000/svg">
<path d="M9.74 11.67C10.5225 12.1225 10.9125 12.3475 11.3425 12.3475C11.7725 12.3475 12.1625 12.1225 12.9475 11.6725L17.94 8.8025C18.165 8.6725 18.305 8.4325 18.305 8.1725C18.305 7.9125 18.165 7.6725 17.94 7.5425L12.945 4.675C12.1625 4.225 11.77 4 11.3425 4C10.9125 4 10.5225 4.225 9.74 4.675L5.4475 7.1475C5.415 7.165 5.4 7.175 5.385 7.1825C3.9175 8.0425 3.0125 9.61 3 11.3075C3 11.325 3 11.3425 3 11.38C3 11.4175 3 11.435 3 11.4525C3.0125 13.15 3.915 14.715 5.38 15.575C5.395 15.5825 5.41 15.5925 5.4425 15.61L8.1325 17.1625C9.7 18.0675 10.4825 18.52 11.3425 18.52C12.2025 18.52 12.9875 18.0675 14.555 17.165L17.3925 15.5275C18.1775 15.075 18.57 14.85 18.785 14.475C19 14.1025 19 13.65 19 12.7425V10.9925C19 10.74 18.865 10.51 18.645 10.3875C18.4325 10.27 18.1725 10.27 17.9625 10.3925L12.1425 13.7375C11.7525 13.9625 11.5575 14.075 11.3425 14.075C11.1275 14.075 10.9325 13.9625 10.5425 13.7375L6.6025 11.475C6.405 11.3625 6.3075 11.305 6.2275 11.295C6.0475 11.2725 5.8725 11.3725 5.805 11.5425C5.775 11.6175 5.775 11.73 5.7775 11.9575C5.7775 12.125 5.7775 12.2075 5.795 12.285C5.83 12.4575 5.92 12.6125 6.0525 12.73C6.1125 12.7825 6.185 12.8225 6.33 12.9075L10.5425 15.3375C10.935 15.5625 11.13 15.6775 11.345 15.6775C11.56 15.6775 11.755 15.565 12.1475 15.34L17.31 12.365C17.445 12.2875 17.51 12.25 17.56 12.2775C17.61 12.3075 17.61 12.3825 17.61 12.5375V13.3325C17.61 13.56 17.61 13.6725 17.555 13.765C17.5 13.8575 17.4025 13.915 17.2075 14.0275L12.95 16.4825C12.165 16.935 11.775 17.16 11.345 17.16C10.915 17.16 10.5225 16.9325 9.74 16.48L5.755 14.1775C5.7425 14.17 5.735 14.1675 5.73 14.1625C4.895 13.675 4.38 12.7825 4.375 11.815C4.375 11.8075 4.375 11.8 4.375 11.785V11.0575C4.375 10.5225 4.66 10.03 5.1225 9.7625C5.53 9.525 6.035 9.525 6.4425 9.7625L9.7425 11.6675L9.74 11.67Z" fill="#BABABA"/>
</svg>
