<svg width="22" height="22" viewBox="0 0 22 22" fill="none" xmlns="http://www.w3.org/2000/svg">
<path d="M17.3438 7.75C17.3438 7.90625 17.3438 8.03125 17.3438 8.1875C17.3438 12.5312 14.0625 17.5 8.03125 17.5C6.15625 17.5 4.4375 16.9688 3 16.0312C3.25 16.0625 3.5 16.0938 3.78125 16.0938C5.3125 16.0938 6.71875 15.5625 7.84375 14.6875C6.40625 14.6562 5.1875 13.7188 4.78125 12.4062C5 12.4375 5.1875 12.4688 5.40625 12.4688C5.6875 12.4688 6 12.4062 6.25 12.3438C4.75 12.0312 3.625 10.7188 3.625 9.125V9.09375C4.0625 9.34375 4.59375 9.46875 5.125 9.5C4.21875 8.90625 3.65625 7.90625 3.65625 6.78125C3.65625 6.15625 3.8125 5.59375 4.09375 5.125C5.71875 7.09375 8.15625 8.40625 10.875 8.5625C10.8125 8.3125 10.7812 8.0625 10.7812 7.8125C10.7812 6 12.25 4.53125 14.0625 4.53125C15 4.53125 15.8438 4.90625 16.4688 5.5625C17.1875 5.40625 17.9062 5.125 18.5312 4.75C18.2812 5.53125 17.7812 6.15625 17.0938 6.5625C17.75 6.5 18.4062 6.3125 18.9688 6.0625C18.5312 6.71875 17.9688 7.28125 17.3438 7.75Z" fill="#BABABA"/>
</svg>
