<svg width="52" height="51" viewBox="0 0 52 51" fill="none" xmlns="http://www.w3.org/2000/svg">
<g filter="url(#filter0_d_213_793)">
<path d="M26 3.375C19.3555 3.375 13.3672 6.90234 10.0859 12.5625C6.72266 18.3047 6.72266 25.2773 10.0859 30.9375C13.3672 36.6797 19.3555 40.125 26 40.125C32.5625 40.125 38.5508 36.6797 41.832 30.9375C45.1953 25.2773 45.1953 18.3047 41.832 12.5625C38.5508 6.90234 32.5625 3.375 26 3.375ZM26 42.75C18.4531 42.75 11.5625 38.8125 7.78906 32.25C4.01562 25.7695 4.01562 17.8125 7.78906 11.25C11.5625 4.76953 18.4531 0.75 26 0.75C33.4648 0.75 40.3555 4.76953 44.1289 11.25C47.9023 17.8125 47.9023 25.7695 44.1289 32.25C40.3555 38.8125 33.4648 42.75 26 42.75ZM24.6875 29.625V23.0625H18.125C17.3867 23.0625 16.8125 22.4883 16.8125 21.75C16.8125 21.0938 17.3867 20.4375 18.125 20.4375H24.6875V13.875C24.6875 13.2188 25.2617 12.5625 26 12.5625C26.6562 12.5625 27.3125 13.2188 27.3125 13.875V20.4375H33.875C34.5312 20.4375 35.1875 21.0938 35.1875 21.75C35.1875 22.4883 34.5312 23.0625 33.875 23.0625H27.3125V29.625C27.3125 30.3633 26.6562 30.9375 26 30.9375C25.2617 30.9375 24.6875 30.3633 24.6875 29.625Z" fill="#333333"/>
</g>
<defs>
<filter id="filter0_d_213_793" x="0.015625" y="0.75" width="51.8867" height="50" filterUnits="userSpaceOnUse" color-interpolation-filters="sRGB">
<feFlood flood-opacity="0" result="BackgroundImageFix"/>
<feColorMatrix in="SourceAlpha" type="matrix" values="0 0 0 0 0 0 0 0 0 0 0 0 0 0 0 0 0 0 127 0" result="hardAlpha"/>
<feOffset dy="4"/>
<feGaussianBlur stdDeviation="2"/>
<feComposite in2="hardAlpha" operator="out"/>
<feColorMatrix type="matrix" values="0 0 0 0 0 0 0 0 0 0 0 0 0 0 0 0 0 0 0.25 0"/>
<feBlend mode="normal" in2="BackgroundImageFix" result="effect1_dropShadow_213_793"/>
<feBlend mode="normal" in="SourceGraphic" in2="effect1_dropShadow_213_793" result="shape"/>
</filter>
</defs>
</svg>
