<svg width="22" height="24" viewBox="0 0 22 24" fill="none" xmlns="http://www.w3.org/2000/svg">
<path d="M8.925 12.5875C9.90312 13.1531 10.3906 13.4344 10.9281 13.4344C11.4656 13.4344 11.9531 13.1531 12.9344 12.5906L19.175 9.00313C19.4562 8.84063 19.6313 8.54063 19.6313 8.21563C19.6313 7.89063 19.4562 7.59063 19.175 7.42813L12.9312 3.84375C11.9531 3.28125 11.4625 3 10.9281 3C10.3906 3 9.90312 3.28125 8.925 3.84375L3.55938 6.93438C3.51875 6.95625 3.5 6.96875 3.48125 6.97813C1.64688 8.05313 0.515625 10.0125 0.5 12.1344C0.5 12.1563 0.5 12.1781 0.5 12.225C0.5 12.2719 0.5 12.2938 0.5 12.3156C0.515625 14.4375 1.64375 16.3938 3.475 17.4688C3.49375 17.4781 3.5125 17.4906 3.55313 17.5125L6.91563 19.4531C8.875 20.5844 9.85312 21.15 10.9281 21.15C12.0031 21.15 12.9844 20.5844 14.9438 19.4563L18.4906 17.4094C19.4719 16.8438 19.9625 16.5625 20.2313 16.0938C20.5 15.6281 20.5 15.0625 20.5 13.9281V11.7406C20.5 11.425 20.3313 11.1375 20.0563 10.9844C19.7906 10.8375 19.4656 10.8375 19.2031 10.9906L11.9281 15.1719C11.4406 15.4531 11.1969 15.5938 10.9281 15.5938C10.6594 15.5938 10.4156 15.4531 9.92813 15.1719L5.00313 12.3438C4.75625 12.2031 4.63438 12.1313 4.53438 12.1188C4.30938 12.0906 4.09063 12.2156 4.00625 12.4281C3.96875 12.5219 3.96875 12.6625 3.97187 12.9469C3.97187 13.1563 3.97188 13.2594 3.99375 13.3563C4.0375 13.5719 4.15 13.7656 4.31562 13.9125C4.39062 13.9781 4.48125 14.0281 4.6625 14.1344L9.92813 17.1719C10.4187 17.4531 10.6625 17.5969 10.9313 17.5969C11.2 17.5969 11.4438 17.4563 11.9344 17.175L18.3875 13.4563C18.5562 13.3594 18.6375 13.3125 18.7 13.3469C18.7625 13.3844 18.7625 13.4781 18.7625 13.6719V14.6656C18.7625 14.95 18.7625 15.0906 18.6938 15.2063C18.625 15.3219 18.5031 15.3938 18.2594 15.5344L12.9375 18.6031C11.9563 19.1688 11.4688 19.45 10.9313 19.45C10.3938 19.45 9.90312 19.1656 8.925 18.6L3.94375 15.7219C3.92813 15.7125 3.91875 15.7094 3.9125 15.7031C2.86875 15.0938 2.225 13.9781 2.21875 12.7688C2.21875 12.7594 2.21875 12.75 2.21875 12.7313V11.8219C2.21875 11.1531 2.575 10.5375 3.15312 10.2031C3.6625 9.90625 4.29375 9.90625 4.80313 10.2031L8.92812 12.5844L8.925 12.5875Z" fill="#BABABA"/>
</svg>
